<svg width="375" height="119" viewBox="0 0 375 119" version="1.1" xmlns="http://www.w3.org/2000/svg" xmlns:xlink="http://www.w3.org/1999/xlink">
<title>Group</title>
<desc>Created using Figma</desc>
<g id="Canvas" transform="translate(225 -242)">
<g id="Group">
<g id="Vector">
<use xlink:href="#path0_fill" transform="matrix(0.523504 0 0 0.523504 -216.133 343.848)" fill="#C2C2C2"/>
</g>
<g id="Group">
<g id="Vector">
<use xlink:href="#path1_fill" transform="matrix(0.523504 0 0 0.523504 -184.718 293.178)" fill="#1E4D77"/>
</g>
<g id="Vector">
<use xlink:href="#path2_fill" transform="matrix(0.523504 0 0 0.523504 -21.4482 243.985)" fill="#1E4D77"/>
</g>
<g id="Vector">
<use xlink:href="#path3_fill" transform="matrix(0.523504 0 0 0.523504 -148.436 243.985)" fill="#053960"/>
</g>
<g id="Vector">
<use xlink:href="#path4_fill" transform="matrix(0.523504 0 0 0.523504 -148.436 251.34)" fill="#1E4D77"/>
</g>
<g id="Group">
<g id="Vector">
<use xlink:href="#path5_fill" transform="matrix(0.523504 0 0 0.523504 -45.8316 243.985)" fill="#1C587C"/>
</g>
<g id="Vector">
<use xlink:href="#path6_fill" transform="matrix(0.523504 0 0 0.523504 -45.8316 251.34)" fill="#2A628C"/>
</g>
<g id="Vector">
<use xlink:href="#path7_fill" transform="matrix(0.523504 0 0 0.523504 -24.2 251.543)" fill="#2A628C"/>
</g>
<g id="Vector">
<use xlink:href="#path7_fill" transform="matrix(0.523504 0 0 0.523504 -24.2 251.543)" fill="#2A628C"/>
</g>
<g id="Vector">
<use xlink:href="#path8_fill" transform="matrix(0.523504 0 0 0.523504 -110.217 244.392)" fill="#1C587C"/>
</g>
<g id="Vector">
<use xlink:href="#path9_fill" transform="matrix(0.523504 0 0 0.523504 -110.217 251.34)" fill="#2A628C"/>
</g>
<g id="Vector">
<use xlink:href="#path10_fill" transform="matrix(0.523504 0 0 0.523504 -88.5854 244.265)" fill="#1C587C"/>
</g>
<g id="Vector">
<use xlink:href="#path11_fill" transform="matrix(0.523504 0 0 0.523504 -88.5854 251.34)" fill="#2A628C"/>
</g>
</g>
<g id="Vector">
<use xlink:href="#path12_fill" transform="matrix(0.523504 0 0 0.523504 -66.2149 243.985)" fill="#3772F7"/>
</g>
<g id="Group">
<g id="Vector">
<use xlink:href="#path13_fill" transform="matrix(0.523504 0 0 0.523504 59.9317 299.795)" fill="#0F2B3F"/>
</g>
<g id="Group">
<g id="Group">
<g id="Vector">
<use xlink:href="#path14_fill" transform="matrix(0.515565 -0.0907769 0.0909839 0.515529 66.5453 329.077)" fill="#A7C3D3"/>
</g>
</g>
<g id="Group">
<g id="Vector">
<use xlink:href="#path15_fill" transform="matrix(0.492004 -0.178853 0.179224 0.491869 78.9839 307.616)" fill="#A7C3D3"/>
</g>
</g>
<g id="Group">
<g id="Vector">
<use xlink:href="#path16_fill" transform="matrix(0.453488 -0.261522 0.261983 0.453221 68.7487 335.615)" fill="#A7C3D3"/>
</g>
</g>
<g id="Group">
<g id="Vector">
<use xlink:href="#path17_fill" transform="matrix(0.401199 -0.336277 0.33674 0.40081 73.0721 311.19)" fill="#A7C3D3"/>
</g>
</g>
<g id="Group">
<g id="Vector">
<use xlink:href="#path18_fill" transform="matrix(0.33674 -0.40081 0.401199 0.336277 73.0565 341.048)" fill="#A7C3D3"/>
</g>
</g>
<g id="Group">
<g id="Vector">
<use xlink:href="#path19_fill" transform="matrix(0.261983 -0.453221 0.453488 0.261522 68.7643 316.617)" fill="#A7C3D3"/>
</g>
</g>
<g id="Group">
<g id="Vector">
<use xlink:href="#path20_fill" transform="matrix(0.179224 -0.491869 0.492004 0.178853 78.9623 344.628)" fill="#A7C3D3"/>
</g>
</g>
<g id="Group">
<g id="Vector">
<use xlink:href="#path21_fill" transform="matrix(0.0909839 -0.515529 0.515565 0.0907769 66.5531 323.152)" fill="#A7C3D3"/>
</g>
</g>
<g id="Group">
<g id="Vector">
<use xlink:href="#path22_fill" transform="matrix(0.523504 0 0 0.523504 85.7674 306.234)" fill="#A7C3D3"/>
</g>
</g>
</g>
<g id="Vector">
<use xlink:href="#path23_fill" transform="matrix(0.523504 0 0 0.523504 64.1612 304.019)" fill="#A7C8DB"/>
</g>
<g id="Vector">
<use xlink:href="#path24_fill" transform="matrix(0.523504 0 0 0.523504 64.5434 304.019)" fill="#E5F1F9"/>
</g>
<g id="Vector">
<use xlink:href="#path25_fill" transform="matrix(0.523504 0 0 0.523504 80.0092 319.849)" fill="#A7C8DB"/>
</g>
<g id="Vector">
<use xlink:href="#path26_fill" transform="matrix(0.523504 0 0 0.523504 80.0092 319.849)" fill="#E5F1F9"/>
</g>
</g>
<g id="Group">
<g id="Vector">
<use xlink:href="#path27_fill" transform="matrix(0.523504 0 0 0.523504 -176.157 299.795)" fill="#0F2B3F"/>
</g>
<g id="Group">
<g id="Group">
<g id="Vector">
<use xlink:href="#path28_fill" transform="matrix(0.515565 -0.0908292 0.0910363 0.515529 -169.487 329.054)" fill="#A7C3D3"/>
</g>
</g>
<g id="Group">
<g id="Vector">
<use xlink:href="#path29_fill" transform="matrix(0.492004 -0.178853 0.179224 0.491869 -157.105 307.616)" fill="#A7C3D3"/>
</g>
</g>
<g id="Group">
<g id="Vector">
<use xlink:href="#path30_fill" transform="matrix(0.453488 -0.261522 0.261983 0.453221 -167.311 335.608)" fill="#A7C3D3"/>
</g>
</g>
<g id="Group">
<g id="Vector">
<use xlink:href="#path31_fill" transform="matrix(0.401199 -0.336277 0.33674 0.40081 -163.002 311.203)" fill="#A7C3D3"/>
</g>
</g>
<g id="Group">
<g id="Vector">
<use xlink:href="#path32_fill" transform="matrix(0.33674 -0.40081 0.401199 0.336277 -163.013 341.031)" fill="#A7C3D3"/>
</g>
</g>
<g id="Group">
<g id="Vector">
<use xlink:href="#path33_fill" transform="matrix(0.261983 -0.453221 0.453488 0.261522 -167.314 316.626)" fill="#A7C3D3"/>
</g>
</g>
<g id="Group">
<g id="Vector">
<use xlink:href="#path34_fill" transform="matrix(0.179224 -0.491869 0.492004 0.178853 -157.102 344.621)" fill="#A7C3D3"/>
</g>
</g>
<g id="Group">
<g id="Vector">
<use xlink:href="#path35_fill" transform="matrix(0.0910363 -0.515529 0.515565 0.0908292 -169.497 323.191)" fill="#A7C3D3"/>
</g>
</g>
<g id="Group">
<g id="Vector">
<use xlink:href="#path36_fill" transform="matrix(0.523504 0 0 0.523504 -150.321 306.234)" fill="#A7C3D3"/>
</g>
</g>
</g>
<g id="Vector">
<use xlink:href="#path37_fill" transform="matrix(0.523504 0 0 0.523504 -171.902 304.019)" fill="#A7C8DB"/>
</g>
<g id="Vector">
<use xlink:href="#path38_fill" transform="matrix(0.523504 0 0 0.523504 -171.545 304.019)" fill="#E5F1F9"/>
</g>
<g id="Vector">
<use xlink:href="#path39_fill" transform="matrix(0.523504 0 0 0.523504 -156.079 319.849)" fill="#A7C8DB"/>
</g>
<g id="Vector">
<use xlink:href="#path40_fill" transform="matrix(0.523504 0 0 0.523504 -156.079 319.849)" fill="#E5F1F9"/>
</g>
</g>
<g id="Group">
<g id="Vector">
<use xlink:href="#path41_fill" transform="matrix(0.523504 0 0 0.523504 -225 242)" fill="#3772F7"/>
</g>
<g id="Group">
<g id="Vector">
<use xlink:href="#path42_fill" transform="matrix(0.523504 0 0 0.523504 -225 242)" fill="#3D90F4"/>
</g>
</g>
<g id="Group">
<g id="Vector">
<use xlink:href="#path43_fill" transform="matrix(0.523504 0 0 0.523504 -225 312.418)" fill="#50A4FF"/>
</g>
</g>
<g id="Vector">
<use xlink:href="#path44_fill" transform="matrix(0.523504 0 0 0.523504 134.101 315.624)" fill="#1C587C"/>
</g>
<g id="Group">
<g id="Vector">
<use xlink:href="#path45_fill" transform="matrix(0.523504 0 0 0.523504 -203.878 278.341)" fill="#50A4FF"/>
</g>
</g>
<g id="Vector">
<use xlink:href="#path46_fill" transform="matrix(0.523504 0 0 0.523504 -98.3693 318.21)" fill="#50A4FF"/>
</g>
</g>
<g id="Vector">
<use xlink:href="#path47_fill" transform="matrix(0.523504 0 0 0.523504 113.973 289.234)" fill="#FFFFFF"/>
</g>
<g id="Vector">
<use xlink:href="#path48_fill" transform="matrix(0.523504 0 0 0.523504 -219.649 277.527)" fill="#E83F3F"/>
</g>
<g id="Vector">
<use xlink:href="#path49_fill" transform="matrix(0.523504 0 0 0.523504 15.7001 273.302)" fill="#3772F7"/>
</g>
<g id="Vector">
<use xlink:href="#path50_fill" transform="matrix(0.523504 0 0 0.523504 0.00509491 264.09)" fill="#3772F7"/>
</g>
<g id="Vector">
<use xlink:href="#path51_fill" transform="matrix(0.523504 0 0 0.523504 0.00509491 264.09)" fill="#3D90F4"/>
</g>
<g id="Group">
<g id="Vector">
<use xlink:href="#path52_fill" transform="matrix(0.523504 0 0 0.523504 0.871366 264.09)" fill="#50A4FF"/>
</g>
</g>
<g id="Group">
<g id="Vector">
<use xlink:href="#path53_fill" transform="matrix(0.523504 0 0 0.523504 -125.938 274.778)" fill="#1E4D77"/>
</g>
</g>
<g id="Group">
<g id="Vector">
<use xlink:href="#path54_fill" transform="matrix(0.523504 0 0 0.523504 -61.807 247.014)" fill="#1E4D77"/>
</g>
</g>
</g>
</g>
</g>
<defs>
<path id="path0_fill" fill-rule="evenodd" d="M 682.647 16.3826C 682.647 18.534 673.818 20.6643 656.665 22.6519C 639.512 24.6396 614.37 26.4455 582.675 27.9668C 550.981 29.488 513.353 30.6948 471.942 31.5181C 430.531 32.3414 386.147 32.7651 341.323 32.7651C 250.799 32.7651 163.982 31.0391 99.9713 27.9668C 35.9608 24.8945 1.00762e-07 20.7275 1.00762e-07 16.3826C 1.00762e-07 12.0376 35.9608 7.87069 99.9713 4.79836C 163.982 1.72603 250.799 2.42229e-05 341.323 2.42229e-05C 386.147 2.42229e-05 430.531 0.423736 471.942 1.24704C 513.353 2.07034 550.981 3.2771 582.675 4.79836C 614.37 6.31962 639.512 8.12558 656.665 10.1132C 673.818 12.1008 682.647 14.2312 682.647 16.3826Z"/>
<path id="path1_fill" fill-rule="evenodd" d="M 572.75 86.3853L 129.852 86.5798L 11.5835 77.5864L 0 0L 578.736 0L 572.75 86.3853Z"/>
<path id="path2_fill" fill-rule="evenodd" d="M 7.44649 0L 113.207 57.266L 100.504 64.6067L 0 5.97936L 7.44649 0Z"/>
<path id="path3_fill" fill-rule="evenodd" d="M 224.272 0L 344 70.2943L 7.68987 66.7942L 0 26.9316L 66.532 1.06946L 224.272 0Z"/>
<path id="path4_fill" fill-rule="evenodd" d="M 33.0957 0L 248.169 0L 344 56.2452L 7.68987 52.7451L 0 12.8824L 33.0957 0Z"/>
<path id="path5_fill" fill-rule="evenodd" d="M 28.2773 0L 38.1574 5.78496L 24.5297 69.0304L 0 68.7388L 14.7471 0.0972022L 28.2773 0Z"/>
<path id="path6_fill" fill-rule="evenodd" d="M 36.3566 0L 24.5297 54.9813L 0 54.6896L 11.7782 0L 36.3566 0Z"/>
<path id="path7_fill" fill-rule="evenodd" d="M 25.6491 8.2642L 15.8178 54.9327L 0 54.7382L 11.5348 0L 25.6491 8.2642Z"/>
<path id="path8_fill" fill-rule="evenodd" d="M 38.9361 0L 24.5297 66.94L 0 66.697L 14.309 0.145863L 38.9361 0Z"/>
<path id="path9_fill" fill-rule="evenodd" d="M 36.0645 0L 24.5297 53.6687L 0 53.4256L 11.4861 0L 36.0645 0Z"/>
<path id="path10_fill" fill-rule="evenodd" d="M 30.0295 0L 15.7691 67.5234L 0 67.3776L 14.163 0.0972022L 30.0295 0Z"/>
<path id="path11_fill" fill-rule="evenodd" d="M 27.1579 0L 15.7691 54.009L 0 53.8631L 11.3401 0L 27.1579 0Z"/>
<path id="path12_fill" fill-rule="evenodd" d="M 15.8664 1.75006L 39.2281 76.8085L 6.76516 71.7041L 0 0L 15.8664 1.75006Z"/>
<path id="path13_fill" fill-rule="evenodd" d="M -2.37647e-05 50.2658C -2.37647e-05 78.0238 22.5342 100.532 50.3249 100.532C 78.1155 100.532 100.65 78.0238 100.65 50.2658C 100.65 22.5078 78.1155 -2.37368e-05 50.3249 -2.37368e-05C 22.5342 0.0485892 -2.37647e-05 22.5078 -2.37647e-05 50.2658ZM 9.29601 50.2658C 9.29601 27.6122 27.6446 9.2851 50.3249 9.2851C 73.0051 9.2851 91.3538 27.6122 91.3538 50.2658C 91.3538 72.9194 73.0051 91.2466 50.3249 91.2466C 27.6446 91.2952 9.29601 72.9194 9.29601 50.2658Z"/>
<path id="path14_fill" fill-rule="evenodd" d="M 2.01518e-07 -2.01295e-07L 76.0687 -2.01295e-07L 76.0687 1.94459L 2.01518e-07 1.94459L 2.01518e-07 -2.01295e-07Z"/>
<path id="path15_fill" fill-rule="evenodd" d="M -2.01497e-07 0L 1.94654 0L 1.94654 75.9926L -2.01497e-07 75.9926L -2.01497e-07 0Z"/>
<path id="path16_fill" fill-rule="evenodd" d="M 2.01465e-07 -2.01347e-07L 76.0491 -2.01347e-07L 76.0491 1.94509L 2.01465e-07 1.94509L 2.01465e-07 -2.01347e-07Z"/>
<path id="path17_fill" fill-rule="evenodd" d="M -2.01427e-07 0L 1.94586 0L 1.94586 76.019L -2.01427e-07 76.019L -2.01427e-07 0Z"/>
<path id="path18_fill" fill-rule="evenodd" d="M 2.01386e-07 -2.01427e-07L 76.019 -2.01427e-07L 76.019 1.94586L 2.01386e-07 1.94586L 2.01386e-07 -2.01427e-07Z"/>
<path id="path19_fill" fill-rule="evenodd" d="M -2.01347e-07 0L 1.94509 0L 1.94509 76.0491L -2.01347e-07 76.0491L -2.01347e-07 0Z"/>
<path id="path20_fill" fill-rule="evenodd" d="M 2.01316e-07 -2.01497e-07L 75.9926 -2.01497e-07L 75.9926 1.94654L 2.01316e-07 1.94654L 2.01316e-07 -2.01497e-07Z"/>
<path id="path21_fill" fill-rule="evenodd" d="M -2.01295e-07 0L 1.94459 0L 1.94459 76.0687L -2.01295e-07 76.0687L -2.01295e-07 0Z"/>
<path id="path22_fill" fill-rule="evenodd" d="M -2.01525e-07 0L 1.9468 0L 1.9468 75.9821L -2.01525e-07 75.9821L -2.01525e-07 0Z"/>
<path id="path23_fill" fill-rule="evenodd" d="M 2.37647e-05 42.196C 2.37647e-05 65.4817 18.9327 84.3921 42.2456 84.3921C 65.5586 84.3921 84.4913 65.4817 84.4913 42.196C 84.4913 18.9104 65.5586 2.37368e-05 42.2456 2.37368e-05C 18.884 0.0486367 2.37647e-05 18.9104 2.37647e-05 42.196ZM 9.00399 42.196C 9.00399 23.869 23.897 8.99342 42.2456 8.99342C 60.5943 8.99342 75.4873 23.869 75.4873 42.196C 75.4873 60.5231 60.5943 75.3987 42.2456 75.3987C 23.8483 75.4473 9.00399 60.5718 9.00399 42.196Z"/>
<path id="path24_fill" fill-rule="evenodd" d="M 74.7573 42.196C 74.7573 23.869 59.8642 8.99342 41.5156 8.99342C 25.1624 8.99342 11.5348 20.8063 8.8093 36.3625L 2.37647e-05 34.418C 3.65028 14.8269 20.8308 2.37368e-05 41.5156 2.37368e-05C 64.8286 2.37368e-05 83.7612 18.9104 83.7612 42.196C 83.7612 45.7448 83.3232 49.1964 82.4958 52.502L 73.7352 50.5575C 74.3679 47.9324 74.7573 45.1128 74.7573 42.196Z"/>
<path id="path25_fill" fill-rule="evenodd" d="M 23.9457 11.9588C 23.9457 13.5292 23.636 15.0843 23.0343 16.5352C 22.4326 17.9862 21.5507 19.3044 20.4389 20.4149C 19.3271 21.5254 18.0073 22.4063 16.5547 23.0073C 15.1021 23.6083 13.5451 23.9176 11.9728 23.9176C 10.4005 23.9176 8.84362 23.6083 7.39101 23.0073C 5.9384 22.4063 4.61857 21.5254 3.50679 20.4149C 2.39501 19.3044 1.51308 17.9862 0.911388 16.5352C 0.309697 15.0843 1.21675e-05 13.5292 1.21675e-05 11.9588C 1.21036e-05 10.3883 0.309697 8.83324 0.911388 7.38234C 1.51308 5.93143 2.39501 4.61315 3.50679 3.50267C 4.61857 2.3922 5.9384 1.5113 7.39101 0.910319C 8.84362 0.309333 10.4005 1.20894e-05 11.9728 1.21532e-05C 13.5451 1.21532e-05 15.1021 0.309333 16.5547 0.910319C 18.0073 1.5113 19.3271 2.3922 20.4389 3.50267C 21.5507 4.61315 22.4326 5.93143 23.0343 7.38234C 23.636 8.83324 23.9457 10.3883 23.9457 11.9588Z"/>
<path id="path26_fill" fill-rule="evenodd" d="M 11.9728 0C 18.592 0 23.9457 5.34741 23.9457 11.9588L 0 11.9588C 0 5.39603 5.3537 0 11.9728 0Z"/>
<path id="path27_fill" fill-rule="evenodd" d="M -1.18823e-05 50.2658C -1.18823e-05 78.0238 22.5343 100.532 50.3249 100.532C 78.1155 100.532 100.65 78.0238 100.65 50.2658C 100.65 22.5078 78.1155 -2.37368e-05 50.3249 -2.37368e-05C 22.5343 0.0485892 -1.18823e-05 22.5078 -1.18823e-05 50.2658ZM 9.29599 50.2658C 9.29599 27.6122 27.6446 9.2851 50.3249 9.2851C 73.0051 9.2851 91.3538 27.6122 91.3538 50.2658C 91.3538 72.9194 73.0051 91.2466 50.3249 91.2466C 27.6933 91.2952 9.29599 72.9194 9.29599 50.2658Z"/>
<path id="path28_fill" fill-rule="evenodd" d="M 2.01517e-07 -2.01295e-07L 76.0687 -2.01295e-07L 76.0687 1.94459L 2.01517e-07 1.94459L 2.01517e-07 -2.01295e-07Z"/>
<path id="path29_fill" fill-rule="evenodd" d="M 0 0L 1.94654 0L 1.94654 75.9926L 0 75.9926L 0 0Z"/>
<path id="path30_fill" fill-rule="evenodd" d="M 2.01465e-07 -2.01347e-07L 76.049 -2.01347e-07L 76.049 1.94509L 2.01465e-07 1.94509L 2.01465e-07 -2.01347e-07Z"/>
<path id="path31_fill" fill-rule="evenodd" d="M 0 0L 1.94586 0L 1.94586 76.019L 0 76.019L 0 0Z"/>
<path id="path32_fill" fill-rule="evenodd" d="M 2.01386e-07 -2.01427e-07L 76.019 -2.01427e-07L 76.019 1.94586L 2.01386e-07 1.94586L 2.01386e-07 -2.01427e-07Z"/>
<path id="path33_fill" fill-rule="evenodd" d="M 0 0L 1.94509 0L 1.94509 76.0491L 0 76.0491L 0 0Z"/>
<path id="path34_fill" fill-rule="evenodd" d="M 2.01316e-07 -2.01497e-07L 75.9925 -2.01497e-07L 75.9925 1.94654L 2.01316e-07 1.94654L 2.01316e-07 -2.01497e-07Z"/>
<path id="path35_fill" fill-rule="evenodd" d="M 0 0L 1.94459 0L 1.94459 76.0687L 0 76.0687L 0 0Z"/>
<path id="path36_fill" fill-rule="evenodd" d="M 0 0L 1.9468 0L 1.9468 75.9821L 0 75.9821L 0 0Z"/>
<path id="path37_fill" fill-rule="evenodd" d="M -5.94117e-06 42.196C -5.94117e-06 65.4817 18.9327 84.3921 42.2456 84.3921C 65.5586 84.3921 84.4913 65.4817 84.4913 42.196C 84.4913 18.9104 65.5586 2.37368e-05 42.2456 2.37368e-05C 18.884 0.0486367 -5.94117e-06 18.9104 -5.94117e-06 42.196ZM 8.9553 42.196C 8.9553 23.869 23.8483 8.99342 42.197 8.99342C 60.5456 8.99342 75.4386 23.869 75.4386 42.196C 75.4386 60.5231 60.5456 75.3987 42.197 75.3987C 23.8483 75.4473 8.9553 60.5718 8.9553 42.196Z"/>
<path id="path38_fill" fill-rule="evenodd" d="M 74.7573 42.196C 74.7573 23.869 59.8642 8.99342 41.5156 8.99342C 25.1624 8.99342 11.5348 20.8063 8.80928 36.3625L 5.94117e-06 34.418C 3.65026 14.8269 20.8308 2.37368e-05 41.5156 2.37368e-05C 64.8286 2.37368e-05 83.7612 18.9104 83.7612 42.196C 83.7612 45.7448 83.3232 49.1964 82.4958 52.502L 73.7352 50.5575C 74.4166 47.9324 74.7573 45.1128 74.7573 42.196Z"/>
<path id="path39_fill" fill-rule="evenodd" d="M 23.9457 11.9588C 23.9457 15.1305 22.6843 18.1722 20.4389 20.4149C 18.1936 22.6576 15.1482 23.9176 11.9728 23.9176C 8.79745 23.9176 5.7521 22.6576 3.50676 20.4149C 1.26142 18.1722 1.18823e-05 15.1305 1.18823e-05 11.9588C 1.18184e-05 10.3883 0.309696 8.83324 0.911388 7.38234C 1.51308 5.93143 2.39498 4.61315 3.50676 3.50267C 4.61854 2.3922 5.93843 1.5113 7.39104 0.910319C 8.84365 0.309333 10.4005 1.21532e-05 11.9728 1.21532e-05C 13.5451 1.21532e-05 15.102 0.309333 16.5546 0.910319C 18.0073 1.5113 19.3271 2.3922 20.4389 3.50267C 21.5507 4.61315 22.4326 5.93143 23.0343 7.38234C 23.636 8.83324 23.9457 10.3883 23.9457 11.9588Z"/>
<path id="path40_fill" fill-rule="evenodd" d="M 11.9728 0C 18.592 0 23.9457 5.34741 23.9457 11.9588L 1.18823e-05 11.9588C 1.18823e-05 5.39603 5.35371 0 11.9728 0Z"/>
<path id="path41_fill" fill-rule="evenodd" d="M -2.97059e-06 116.72L -2.97059e-06 163.972L 54.5105 175.347L 88.4822 175.347L 88.4822 160.666C 88.4822 130.331 113.207 105.636 143.577 105.636C 173.947 105.636 198.671 130.331 198.671 160.666L 198.671 172.625L 206.702 184.292L 531.088 184.292L 539.362 176.028L 539.362 160.666C 539.362 130.331 564.086 105.636 594.457 105.636C 624.827 105.636 649.551 130.331 649.551 160.666L 649.551 184.097L 716.326 181.278L 716.326 166.937L 707.323 161.541L 708.539 140.589L 710.924 137.575L 707.323 90.9062L 621.079 71.1694L 501.886 61.0093L 486.896 62.808L 394.374 10.7434L 398.121 -1.18684e-05L 209.671 -1.18684e-05L 80.257 53.8632L 10.172 57.4606L 10.172 102.914L -2.97059e-06 116.72ZM 170.686 26.6399L 211.618 9.62538L 372.862 9.62538L 479.206 69.4193L 189.473 62.6135L 170.686 26.6399Z"/>
<path id="path42_fill" fill-rule="evenodd" d="M -2.97059e-06 116.72L -2.97059e-06 142.776L 83.7126 155.513C 86.3408 124.79 112.233 100.58 143.625 100.58C 174.142 100.58 199.401 122.651 203.246 157.02C 244.421 157.944 534.398 161.541 534.398 161.541C 534.398 161.249 534.398 160.958 534.398 160.666C 534.398 127.512 561.361 100.58 594.554 100.58C 627.747 100.58 654.71 127.512 654.71 160.666C 654.71 160.958 654.71 161.249 654.71 161.541L 707.469 161.541L 708.685 140.589L 711.07 137.575L 707.469 90.9062L 621.225 71.1694L 502.032 61.0093L 487.042 62.808L 394.52 10.7434L 398.267 -1.18684e-05L 209.671 -1.18684e-05L 80.257 53.8632L 10.172 57.4606L 10.172 102.914L -2.97059e-06 116.72ZM 170.686 26.6399L 211.618 9.62538L 372.862 9.62538L 479.206 69.4193L 189.473 62.6135L 170.686 26.6399Z"/>
<path id="path43_fill" fill-rule="evenodd" d="M 86.9735 5.97938C 85.27 10.7435 84.1506 15.7992 83.7126 21.0494L -2.97059e-06 8.31283L -2.97059e-06 2.37368e-05L 86.9735 5.97938Z"/>
<path id="path44_fill" fill-rule="evenodd" d="M 22.7776 0L 0 1.40979L 7.15448 22.1189L 21.5608 20.9522L 22.7776 0Z"/>
<path id="path45_fill" fill-rule="evenodd" d="M 21.6585 1.18684e-05C 23.7027 1.18684e-05 607.695 20.8063 607.695 20.8063L 645.707 42.196L 648.335 55.2243L 635.437 60.4259L 607.306 62.9052C 597.134 44.0434 577.179 31.1609 554.304 31.1609C 540.287 31.1609 527.341 35.9736 517.12 44.0434L 492.055 32.6193L 160.612 27.126L 137.883 42.196C 128.1 35.0985 116.176 31.1609 103.376 31.1609C 82.6909 31.1609 64.4396 41.6127 53.5862 57.5578L 0.000353364 32.036C -0.0969868 32.036 19.6144 1.18684e-05 21.6585 1.18684e-05Z"/>
<path id="path46_fill" fill-rule="evenodd" d="M 247.731 15.4286C 219.502 2.2545 31.1002 -9.85015 1.18823e-05 12.1229L 247.731 15.4286Z"/>
<path id="path47_fill" fill-rule="evenodd" d="M 56.4573 25.9593L 46.7233 10.2087L 0.535359 0L 0 5.63915L 34.2637 27.6608L 56.4573 25.9593Z"/>
<path id="path48_fill" fill-rule="evenodd" d="M 0 3.9863L 15.7691 0.388928L 35.3345 0L 37.33 9.67399L 6.47313 32.0846L 0 30.6748L 0 3.9863Z"/>
<path id="path49_fill" fill-rule="evenodd" d="M 0 8.60453L 5.40237 22.1189L 15.2824 22.1189L 9.39335 0L 0 8.60453Z"/>
<path id="path50_fill" fill-rule="evenodd" d="M 40.1528 28.8761L 7.73856 28.8761L 0 22.1189L 1.6548 7.38915L 10.7561 0L 41.2235 15.8964L 40.1528 28.8761Z"/>
<path id="path51_fill" fill-rule="evenodd" d="M 40.1528 28.8761L 0 22.1189L 1.6548 7.38915L 10.7561 0L 41.2235 15.8964L 40.1528 28.8761Z"/>
<path id="path52_fill" fill-rule="evenodd" d="M 9.10128 0L 39.5688 15.8964L 39.0334 22.362L 0 7.38915L 9.10128 0Z"/>
<path id="path53_fill" fill-rule="evenodd" d="M 304.188 110.254L 304.188 110.06L 307.157 30.6262L 290.122 6.65995L 289.782 6.95162L 306.719 30.772L 303.799 109.817L 34.6531 103.837L 1.8008 37.2861L 0.438013 0L 0 0.0486011L 1.36276 37.3834L 1.41141 37.432L 34.4098 104.275L 34.5558 104.275L 304.188 110.254Z"/>
<path id="path54_fill" fill-rule="evenodd" d="M 18.2999 159.451L 21.8529 83.4198L 21.8529 83.3712L 13.4329 56.148L 0.438043 0L 0 0.0972022L 12.9949 56.2938L 21.4148 83.4684L 17.8619 159.451L 18.2999 159.451Z"/>
</defs>
</svg>
