<svg width="64" height="44" viewBox="0 0 64 44" version="1.1" xmlns="http://www.w3.org/2000/svg" xmlns:xlink="http://www.w3.org/1999/xlink">
<title>square-root-of-x-mathematical-signs</title>
<desc>Created using Figma</desc>
<g id="Canvas" transform="translate(-335 560)">
<g id="square-root-of-x-mathematical-signs">
<g id="Group">
<g id="Group">
<g id="Vector">
<use xlink:href="#path0_fill" transform="matrix(0.946481 0.322759 -0.322759 0.946481 341.306 -569)" fill="#50A4FF" fill-opacity="0.4"/>
</g>
<g id="Vector">
<use xlink:href="#path1_fill" transform="matrix(0.946481 0.322759 -0.322759 0.946481 369.419 -542.957)" fill="#50A4FF" fill-opacity="0.4"/>
</g>
</g>
</g>
</g>
</g>
<defs>
<path id="path0_fill" d="M 3.13134 21.9181L 5.67874 21.9181L 18.3116 39.8951C 18.9046 40.7387 19.8664 41.2254 20.8736 41.2254C 21.072 41.2254 21.2733 41.2061 21.4725 41.1667C 22.6854 40.9298 23.6455 40.0031 23.924 38.7988L 31.4509 6.26268L 58.4458 6.26268C 60.1749 6.26268 61.5776 4.86131 61.5776 3.13134C 61.5776 1.40223 60.1758 3.46472e-07 58.4458 3.46472e-07L 28.9618 3.46472e-07C 27.5047 3.46472e-07 26.2396 1.00636 25.911 2.42573L 19.4037 30.556L 9.86743 16.9861C 9.28177 16.1528 8.32596 15.6558 7.30589 15.6558L 3.13134 15.6558C 1.4018 15.6558 0 17.0572 0 18.7872C 0.000428423 20.5163 1.40223 21.9181 3.13134 21.9181Z"/>
<path id="path1_fill" d="M -1.1244e-06 19.6522C -1.1244e-06 21.1898 1.25357 22.3208 2.87 22.3208C 3.96205 22.3208 4.81119 21.6336 5.53865 20.7438L 9.90556 15.0025L 14.272 20.7438C 15.0809 21.7549 15.9292 22.3208 17.1416 22.3208C 18.6797 22.3208 19.9722 21.2292 19.9722 19.4911C 19.9722 18.6827 19.6483 17.9548 18.9607 17.145L 13.5429 10.9192L 18.8 4.77263C 19.2859 4.16598 19.6483 3.51906 19.6483 2.6695C 19.6483 1.13189 18.3948 7.32168e-07 16.7775 7.32168e-07C 15.6854 7.32168e-07 14.8371 0.687618 14.1088 1.57831L 10.0247 6.91431L 6.02234 1.57831C 5.21262 0.566803 4.36477 7.32168e-07 3.15233 7.32168e-07C 1.61515 7.32168e-07 0.322172 1.09291 0.322172 2.83145C 0.322172 3.63902 0.64606 4.36777 1.33239 5.17535L 6.3865 10.9985L 0.846992 17.5486C 0.32346 18.1557 -1.1244e-06 18.8026 -1.1244e-06 19.6522Z"/>
</defs>
</svg>
