<svg width="31" height="33" viewBox="0 0 31 33" version="1.1" xmlns="http://www.w3.org/2000/svg" xmlns:xlink="http://www.w3.org/1999/xlink">
<title>Vector</title>
<desc>Created using Figma</desc>
<g id="Canvas" transform="translate(-153 480)">
<g id="Vector">
<use xlink:href="#path0_fill" transform="matrix(0.995099 -0.0988861 0.0988861 0.995099 153.892 -476.975)" fill="#50A4FF" fill-opacity="0.4"/>
</g>
</g>
<defs>
<path id="path0_fill" d="M 22.822 29.7111C 24.8688 29.7111 26.5888 28.2574 26.5888 25.9433C 26.5888 24.8683 26.1588 23.8983 25.2434 22.8216L 18.0315 14.5333L 25.0296 6.35224C 25.6752 5.54473 26.1588 4.68363 26.1588 3.55335C 26.1588 1.50608 24.4895 -2.08839e-07 22.3361 -2.08839e-07C 20.8836 -2.08839e-07 19.7544 0.914711 18.7837 2.10087L 13.3483 9.20301L 8.02003 2.09973C 6.94218 0.755607 5.81357 -2.08839e-07 4.19907 -2.08839e-07C 2.15171 -2.08839e-07 0.431139 1.45476 0.431139 3.76891C 0.431139 4.84387 0.862282 5.8139 1.77532 6.88886L 8.50421 14.64L 1.12918 23.3588C 0.429432 24.1663 -1.04424e-07 25.0274 -1.04424e-07 26.1577C -1.04424e-07 28.2044 1.66868 29.7099 3.82039 29.7099C 5.27407 29.7099 6.40382 28.7952 7.37275 27.6102L 13.184 19.9686L 18.997 27.6102C 20.0772 28.9577 21.2075 29.7111 22.822 29.7111Z"/>
</defs>
</svg>
