<svg width="89" height="94" viewBox="0 0 89 94" version="1.1" xmlns="http://www.w3.org/2000/svg" xmlns:xlink="http://www.w3.org/1999/xlink">
<title>Vector</title>
<desc>Created using Figma</desc>
<g id="Canvas" transform="translate(-269 434)">
<g id="Vector">
<use xlink:href="#path0_fill" transform="matrix(0.813325 -0.58181 0.58181 0.813325 269.838 -402.488)" fill="#50A4FF" fill-opacity="0.4"/>
</g>
</g>
<defs>
<path id="path0_fill" d="M 28.4102 16.3351L 28.1621 17.2069C 26.8824 21.4305 17.164 61.4963 16.378 64.7375C 16.1985 65.2291 15.0086 68.3354 12.8091 68.3354C 9.17247 68.3354 7.5345 63.0393 7.5345 63.0174C 6.95097 60.9828 4.81844 59.8209 2.7765 60.4019C 0.733737 60.9828 -0.43332 63.106 0.150209 65.1397C 1.31727 69.1617 5.3122 76 12.832 76C 19.3414 76 22.7977 70.257 23.7852 66.8607C 23.808 66.7932 23.8301 66.7258 23.8301 66.6811C 27.4439 51.776 34.5368 22.7029 35.5243 19.4187L 35.7936 18.5029C 36.5796 15.8208 38.9806 7.6646 42.1015 7.6646C 44.8396 7.6646 45.3121 12.335 45.3121 12.4471C 45.4916 14.5475 47.3083 16.1117 49.4425 15.9548C 51.5522 15.7988 53.1461 13.9438 52.9894 11.8434C 52.6743 7.75397 49.9811 0 42.1031 0C 33.213 0 29.9804 11.0382 28.4102 16.3351Z"/>
</defs>
</svg>
