<svg width="397" height="201" viewBox="0 0 397 201" version="1.1" xmlns="http://www.w3.org/2000/svg" xmlns:xlink="http://www.w3.org/1999/xlink">
<title>car</title>
<desc>Created using Figma</desc>
<g id="Canvas" transform="translate(-301 -686)">
<g id="car">
<g id="Vector">
<use xlink:href="#path0_fill" transform="translate(301 686)" fill="#50A4FF"/>
</g>
<g id="Vector">
<use xlink:href="#path1_fill" transform="translate(327.498 793.605)" fill="#2E3235"/>
</g>
<g id="Vector">
<use xlink:href="#path2_fill" transform="translate(336.889 802.998)" fill="#3E4347"/>
</g>
<g id="Vector">
<use xlink:href="#path3_fill" transform="translate(679.34 793.605)" fill="#2E3235"/>
</g>
<g id="Group">
<g id="Vector">
<use xlink:href="#path4_fill" transform="translate(688.715 802.998)" fill="#3E4347"/>
</g>
<g id="Vector">
<use xlink:href="#path5_fill" transform="translate(448.969 699.462)" fill="#3E4347"/>
</g>
<g id="Vector">
<use xlink:href="#path6_fill" transform="translate(595.712 698.885)" fill="#3E4347"/>
</g>
</g>
<g id="Group">
<g id="Vector">
<use xlink:href="#path7_fill" transform="translate(309.911 773.852)" fill="#FFD83B"/>
</g>
</g>
<g id="Vector">
<use xlink:href="#path8_fill" transform="translate(350.85 816.962)" fill="#CBD6E0"/>
</g>
<g id="Vector">
<use xlink:href="#path9_fill" transform="translate(356.013 822.126)" fill="#939799"/>
</g>
<g id="Group">
<g id="Vector">
<use xlink:href="#path10_fill" transform="translate(362.425 828.539)" fill="#CBD6E0"/>
</g>
</g>
<g id="Group">
<g id="Vector">
<use xlink:href="#path11_fill" transform="translate(477.345 703.924)" fill="#5A5F63"/>
</g>
<g id="Vector">
<use xlink:href="#path12_fill" transform="translate(511.881 700.413)" fill="#5A5F63"/>
</g>
<g id="Vector">
<use xlink:href="#path13_fill" transform="translate(602.654 699.165)" fill="#5A5F63"/>
</g>
<g id="Vector">
<use xlink:href="#path14_fill" transform="translate(637.175 700.991)" fill="#5A5F63"/>
</g>
</g>
</g>
</g>
<defs>
<path id="path0_fill" d="M 499 116.249L 499 142.071C 499 142.071 490.764 156.581 485.319 158.843L 386.576 158.843L 379.322 156.581L 376.14 163.836L 129.718 163.836L 129.063 163.602L 117.941 159.748L 34.1416 170.623C 34.1416 170.623 31.4897 170.498 27.6835 169.998C 17.0136 168.61 -2.68827 164.288 1.97591 151.588C 1.97591 151.588 -2.46989 127.514 1.97591 113.534C 1.97591 113.534 3.33305 94.047 20.0867 87.2445C 36.8559 80.4575 86.2276 67.3049 113.402 63.2483C 113.402 63.2483 137.409 55.9933 147.829 46.476C 147.829 46.476 171.337 28.9079 200.367 16.1765C 216.014 9.32719 232.752 5.28622 249.755 3.6948C 282.654 0.605569 354.161 -4.15309 399.679 7.04927C 438.35 16.5822 463.98 38.4253 477.473 53.0289C 484.883 61.0484 488.923 71.5175 488.923 82.439L 488.923 92.2372L 492.09 103.564C 492.105 103.564 499 108.541 499 116.249Z"/>
<path id="path1_fill" d="M 102.768 51.3936C 102.768 52.9382 102.706 54.4828 102.565 55.9962L 91.4429 52.1425L 7.64365 63.0172C 7.64365 63.0172 4.99177 62.8924 1.18555 62.3931C 0.405582 58.8514 8.33091e-07 55.1693 8.33091e-07 51.3936C 8.33091e-07 23.0132 23.0089 1.40462e-05 51.384 1.40462e-05C 79.7591 1.40462e-05 102.768 23.0132 102.768 51.3936Z"/>
<path id="path2_fill" d="M 41.9933 84.0021C 65.1855 84.0021 83.9865 65.1976 83.9865 42.0011C 83.9865 18.8045 65.1855 2.85684e-06 41.9933 2.85684e-06C 18.801 2.85684e-06 0 18.8045 0 42.0011C 0 65.1976 18.801 84.0021 41.9933 84.0021Z"/>
<path id="path3_fill" d="M -9.28302e-06 51.2064L 0.982741 48.9596L 8.23641 51.222L 102.752 51.222C 102.659 22.9196 79.6967 1.40462e-05 51.384 1.40462e-05C 23.0557 1.40462e-05 0.0935864 22.9196 -9.28302e-06 51.2064Z"/>
<path id="path4_fill" d="M 41.9933 84.0021C 65.1855 84.0021 83.9865 65.1976 83.9865 42.0011C 83.9865 18.8045 65.1855 2.85684e-06 41.9933 2.85684e-06C 18.801 2.85684e-06 -1.19013e-05 18.8045 -1.19013e-05 42.0011C -1.19013e-05 65.1976 18.801 84.0021 41.9933 84.0021Z"/>
<path id="path5_fill" d="M 132.329 -7.02308e-06C 123.609 0.296434 118.086 0.592884 117.977 0.608486L 117.665 0.624095L 117.353 0.624095C 116.48 0.59289 115.606 0.592878 114.733 0.592878C 76.6548 0.592878 38.7174 23.216 19.4835 36.6963C 10.7947 42.7812 3.96221 51.3468 -3.80842e-06 61.0201L 121.347 51.3312L 132.329 -7.02308e-06Z"/>
<path id="path6_fill" d="M 98.9462 8.17554C 86.888 2.90201 58.1697 -2.3807e-06 17.9548 -2.3807e-06C 13.2438 -2.3807e-06 8.6732 0.0468037 4.3678 0.109212L -1.02351e-05 49.8646L 120.255 40.2692C 120.645 38.0225 120.972 35.885 121.206 33.9347L 121.222 33.7787L 121.253 33.6227C 122.517 26.2585 108.821 14.198 98.9462 8.17554Z"/>
<path id="path7_fill" d="M 1.832 18.0682C 1.832 18.0682 18.5388 -1.38766 37.258 0.0789407C 41.8129 0.437791 55.4311 6.53823 34.1381 18.0682C 27.4772 21.6723 14.3738 23.7943 4.40588 23.9503C -3.67454 24.0595 1.832 18.0682 1.832 18.0682Z"/>
<path id="path8_fill" d="M 28.0319 56.0742C 43.5135 56.0742 56.0638 43.5216 56.0638 28.0371C 56.0638 12.5526 43.5135 9.99896e-06 28.0319 9.99896e-06C 12.5503 9.99896e-06 0 12.5526 0 28.0371C 0 43.5216 12.5503 56.0742 28.0319 56.0742Z"/>
<path id="path9_fill" d="M 22.8685 45.7456C 35.4985 45.7456 45.7371 35.5051 45.7371 22.8728C 45.7371 10.2405 35.4985 0 22.8685 0C 10.2386 0 0 10.2405 0 22.8728C 0 35.5051 10.2386 45.7456 22.8685 45.7456Z"/>
<path id="path10_fill" d="M 16.4572 32.9206C 25.5463 32.9206 32.9145 25.5511 32.9145 16.4603C 32.9145 7.36952 25.5463 -1.07132e-05 16.4572 -1.07132e-05C 7.36816 -1.07132e-05 0 7.36952 0 16.4603C 0 25.5511 7.36816 32.9206 16.4572 32.9206Z"/>
<path id="path11_fill" d="M 0 54.28L 25.536 52.2361L 57.6549 -3.09492e-06C 46.4858 2.8708 35.8939 7.099 26.1444 11.7641L 0 54.28Z"/>
<path id="path12_fill" d="M -3.92743e-06 55.0289L 13.3218 53.9679L 46.5014 5.83273e-06C 41.9308 0.249641 37.3915 0.74891 32.8833 1.54462L -3.92743e-06 55.0289Z"/>
<path id="path13_fill" d="M 1.47576e-05 49.0377L 25.536 46.9938L 53.7239 1.13897C 46.6106 0.608491 38.7174 0.218438 30.1378 7.02308e-06L 1.47576e-05 49.0377Z"/>
<path id="path14_fill" d="M 4.52249e-06 44.4506L 13.3218 43.3897L 39.0762 1.49781C 35.4883 0.936128 31.6353 0.42126 27.3299 1.19035e-06L 4.52249e-06 44.4506Z"/>
</defs>
</svg>
