<svg width="64" height="87" viewBox="0 0 64 87" version="1.1" xmlns="http://www.w3.org/2000/svg" xmlns:xlink="http://www.w3.org/1999/xlink">
<title>Vector</title>
<desc>Created using Figma</desc>
<g id="Canvas" transform="translate(-108 521)">
<g id="Vector">
<use xlink:href="#path0_fill" transform="matrix(0.995099 -0.0988861 0.0988861 0.995099 108 -515.229)" fill="#50A4FF" fill-opacity="0.4"/>
</g>
</g>
<defs>
<path id="path0_fill" d="M 13.1983 81.2714C 19.8393 81.2714 23.3649 75.3406 24.4017 71.8369C 24.4182 71.7816 24.4336 71.7251 24.4479 71.6675C 26.8636 61.6621 30.712 45.8041 33.5629 34.2692L 43.7631 34.2692C 45.681 34.2692 47.2362 32.7147 47.2362 30.7963C 47.2362 28.8779 45.681 27.3233 43.7631 27.3233L 35.2892 27.3233C 36.2016 23.689 36.8694 21.1006 37.1323 20.2172L 37.4243 19.2284C 38.501 15.5541 41.0223 6.9476 44.9214 6.9476C 48.5371 6.9476 49.076 12.5157 49.1005 12.7849C 49.2545 14.6913 50.9175 16.1312 52.8285 15.9664C 54.7413 15.8204 56.1727 14.149 56.025 12.2374C 55.7005 8.00431 52.9591 0 44.9203 0C 35.8178 0 32.4006 11.6666 30.7587 17.2746L 30.4793 18.2207C 30.1457 19.3304 29.2703 22.7498 28.1286 27.3233L 15.9768 27.3233C 14.0583 27.3233 12.5037 28.8779 12.5037 30.7963C 12.5037 32.7147 14.0583 34.2692 15.9768 34.2692L 26.408 34.2692C 22.8419 48.7324 18.2334 67.8096 17.7264 69.91C 17.5371 70.4603 16.1131 74.325 13.2 74.325C 8.75171 74.325 6.82583 68.0817 6.81044 68.0349C 6.27664 66.1935 4.35533 65.1277 2.50815 65.6649C 0.666101 66.1992 -0.395785 68.125 0.138009 69.9675C 1.3533 74.1653 5.47025 81.2714 13.1983 81.2714Z"/>
</defs>
</svg>
