<svg width="26" height="27" viewBox="0 0 26 27" version="1.1" xmlns="http://www.w3.org/2000/svg" xmlns:xlink="http://www.w3.org/1999/xlink">
<title>Vector</title>
<desc>Created using Figma</desc>
<g id="Canvas" transform="translate(-362 543)">
<g id="Vector">
<use xlink:href="#path0_fill" transform="matrix(0.946481 0.322759 -0.322759 0.946481 369.419 -542.957)" fill="#50A4FF" fill-opacity="0.4"/>
</g>
</g>
<defs>
<path id="path0_fill" d="M -1.1244e-06 19.6522C -1.1244e-06 21.1898 1.25357 22.3208 2.87 22.3208C 3.96205 22.3208 4.81119 21.6336 5.53865 20.7438L 9.90556 15.0025L 14.272 20.7438C 15.0809 21.7549 15.9292 22.3208 17.1416 22.3208C 18.6797 22.3208 19.9722 21.2292 19.9722 19.4911C 19.9722 18.6827 19.6483 17.9548 18.9607 17.145L 13.5429 10.9192L 18.8 4.77263C 19.2859 4.16598 19.6483 3.51906 19.6483 2.6695C 19.6483 1.13189 18.3948 7.32168e-07 16.7775 7.32168e-07C 15.6854 7.32168e-07 14.8371 0.687618 14.1088 1.57831L 10.0247 6.91431L 6.02234 1.57831C 5.21262 0.566803 4.36477 7.32168e-07 3.15233 7.32168e-07C 1.61515 7.32168e-07 0.322172 1.09291 0.322172 2.83145C 0.322172 3.63902 0.64606 4.36777 1.33239 5.17535L 6.3865 10.9985L 0.846992 17.5486C 0.32346 18.1557 -1.1244e-06 18.8026 -1.1244e-06 19.6522Z"/>
</defs>
</svg>
