<svg width="67" height="70" viewBox="0 0 67 70" version="1.1" xmlns="http://www.w3.org/2000/svg" xmlns:xlink="http://www.w3.org/1999/xlink">
<title>Vector</title>
<desc>Created using Figma</desc>
<g id="Canvas" transform="translate(-150 676)">
<g id="Vector">
<use xlink:href="#path0_fill" transform="matrix(0.9736 0.228261 -0.228261 0.9736 163.543 -676)" fill="#50A4FF" fill-opacity="0.4"/>
</g>
</g>
<defs>
<path id="path0_fill" d="M 0.290452 56.9986C 0.87859 58.4107 2.25851 59.3305 3.78715 59.3305L 51.7559 59.3305C 53.8478 59.3305 55.5433 57.6355 55.5433 55.5425L 55.5433 44.1824C 55.5433 42.0905 53.8483 40.395 51.7559 40.395C 49.6635 40.395 47.968 42.09 47.968 44.1824L 47.968 51.7556L 12.8875 51.7556L 30.2337 34.2944C 31.6224 32.8958 31.7074 30.6651 30.427 29.1665L 11.9988 7.57429L 47.969 7.57429L 47.969 10.0989C 47.969 12.1908 49.664 13.8858 51.757 13.8858C 53.8499 13.8858 55.5444 12.1908 55.5444 10.0989L 55.5444 3.7874C 55.5444 1.6955 53.8494 0 51.757 0L 3.78715 0C 2.30981 0 0.9672 0.859666 0.348489 2.20176C -0.270223 3.54386 -0.0515493 5.12276 0.906572 6.24618L 22.4029 31.432L 1.10089 52.8744C 0.022551 53.9595 -0.29665 55.5861 0.290452 56.9986Z"/>
</defs>
</svg>
